<svg version="1.1" id="Layer_1" xmlns="http://www.w3.org/2000/svg" xmlns:xlink="http://www.w3.org/1999/xlink" x="0px" y="0px"
	 width="100%" viewBox="0 0 500 500" enable-background="new 0 0 500 500" xml:space="preserve">
<path fill="#000000" opacity="1.000000" stroke="none" 
	d="
M337.000000,501.000000 
	C224.666687,501.000000 112.833389,501.000000 1.000060,501.000000 
	C1.000040,334.333405 1.000040,167.666794 1.000020,1.000149 
	C167.666565,1.000100 334.333130,1.000100 500.999756,1.000050 
	C500.999847,167.666519 500.999847,334.333038 500.999939,500.999786 
	C446.500000,501.000000 392.000000,501.000000 337.000000,501.000000 
M215.626022,308.418396 
	C215.459381,308.349060 215.292755,308.279755 215.153793,307.845642 
	C214.809433,307.794464 214.465088,307.743317 213.529999,307.225342 
	C213.285538,307.168579 213.041092,307.111816 212.475769,306.489166 
	C207.641418,302.992706 202.807083,299.496277 197.627563,295.382263 
	C196.826233,294.857483 196.089676,294.083252 195.211304,293.855255 
	C192.692551,293.201294 189.966110,292.049713 187.623367,292.539276 
	C186.371628,292.800842 185.742889,296.043701 184.547256,298.707550 
	C185.007507,301.114655 184.874420,303.867798 186.038849,305.864166 
	C189.579193,311.933838 192.885483,318.392273 197.598999,323.480072 
	C214.653778,341.888947 236.141174,349.230713 261.734802,347.223846 
	C262.221313,347.133789 262.707794,347.043732 263.144989,347.201324 
	C263.144989,347.201324 263.479156,347.232819 263.479156,347.232819 
	C263.479156,347.232819 263.509094,346.928833 264.301971,346.819489 
	C264.556458,346.739502 264.810974,346.659485 265.495819,346.714661 
	C265.495819,346.714661 265.924530,346.571686 266.744781,346.744080 
	C269.922943,346.105713 273.271149,345.901398 276.243225,344.737061 
	C282.127014,342.432007 287.802948,339.596558 294.297333,336.847595 
	C298.839935,333.197876 303.382538,329.548126 308.483276,325.552612 
	C310.590881,322.718140 312.698486,319.883667 315.305054,316.479034 
	C316.221497,310.861694 313.227509,307.494995 308.481720,309.227661 
	C304.828766,310.561371 301.459381,312.671631 297.443756,314.699677 
	C296.596283,315.177856 295.748810,315.656006 294.427551,316.128204 
	C294.075806,316.451508 293.724060,316.774841 292.923859,316.437988 
	C291.996246,316.479340 291.005585,316.321167 290.150391,316.591553 
	C273.402771,321.886810 256.484406,322.772430 239.535797,317.955353 
	C231.818008,315.761841 224.349045,312.692841 216.542343,309.709961 
	C216.295135,309.450256 216.047913,309.190552 215.626022,308.418396 
M284.541962,137.713135 
	C284.825165,137.791092 285.108337,137.869034 285.365875,138.327866 
	C285.872040,138.346344 286.378204,138.364822 287.126526,138.798935 
	C287.126526,138.798935 287.517273,139.079544 287.837982,139.574783 
	C306.457428,146.454483 322.007660,157.737213 335.464844,173.141479 
	C337.397766,175.611206 339.649750,177.896240 341.205841,180.584122 
	C346.613831,189.925156 351.780426,199.405899 357.093842,209.635025 
	C363.840790,229.973404 366.295929,250.678741 362.286163,272.695953 
	C362.263214,273.216858 362.240295,273.737762 361.884460,274.909241 
	C361.346771,276.636078 360.633545,278.329681 360.299377,280.095062 
	C357.805176,293.272064 351.794189,304.954834 344.745544,316.121185 
	C335.168579,331.292816 322.416718,343.302246 307.284058,352.904816 
	C298.946503,358.195496 297.676056,367.412292 304.275604,375.562408 
	C311.473022,381.419952 318.393158,380.620300 328.625916,372.684296 
	C328.770966,372.510681 328.915985,372.337036 329.618195,372.064209 
	C331.042389,371.013123 332.466583,369.962036 333.960449,369.005615 
	C333.960449,369.005615 333.920349,368.895874 334.552917,368.765686 
	C335.848450,367.686127 337.143982,366.606598 338.077423,365.022797 
	C338.191132,365.195465 338.304840,365.368134 339.028259,365.242828 
	C341.014648,363.481384 343.001068,361.719910 344.987000,359.985443 
	C344.987000,359.985443 344.960083,359.986481 345.550232,359.819946 
	C346.049805,359.209869 346.549377,358.599762 346.985413,357.986664 
	C346.985413,357.986664 346.979065,358.049957 347.513031,357.887299 
	C347.706818,357.579437 347.900604,357.271606 348.526306,356.846649 
	C348.802948,356.674805 348.949677,356.426270 349.556702,355.856934 
	C350.568115,354.806396 351.579529,353.755829 353.108124,352.277130 
	C360.622925,342.296478 368.994141,332.834900 375.437714,322.204926 
	C383.657166,308.645233 388.770447,293.592438 391.661713,277.886475 
	C395.091888,259.252960 395.337067,240.636841 391.528259,221.238205 
	C387.344330,208.611343 384.126801,195.552612 378.727051,183.469040 
	C372.262634,169.003036 363.393036,155.765488 350.483826,144.937073 
	C349.451416,143.664566 348.557495,142.241898 347.365448,141.142487 
	C333.343842,128.210144 317.255524,118.603340 299.358429,112.153130 
	C280.302551,105.285263 260.591461,102.673836 240.347702,103.918526 
	C230.260880,104.538719 224.576706,109.651985 225.302734,118.719032 
	C226.218216,125.674072 230.516525,130.417328 237.348389,131.035355 
	C247.821030,131.982727 258.334595,132.477707 269.791504,133.594009 
	C270.464752,133.783646 271.138031,133.973282 271.733154,134.032440 
	C271.733154,134.032440 271.636871,134.028351 272.455780,134.335236 
	C275.862488,135.194824 279.269226,136.054413 282.757080,137.304962 
	C283.092010,137.304489 283.426910,137.304016 284.541962,137.713135 
M156.043213,358.836029 
	C157.057175,359.532532 158.071152,360.229034 159.300400,361.366699 
	C159.516510,361.648926 159.802246,361.786224 160.405807,362.411499 
	C164.182343,365.285645 167.840500,368.336273 171.774750,370.975342 
	C174.664856,372.914001 177.916611,374.313507 181.637070,376.148651 
	C184.994720,378.092499 188.352386,380.036316 192.092377,382.437164 
	C196.071899,383.930664 200.051422,385.424164 204.686508,387.209015 
	C204.933044,387.427277 205.143555,387.748322 205.431244,387.849213 
	C226.660950,395.291473 248.433136,396.891083 270.558563,393.413635 
	C274.568359,392.783447 278.346832,390.681274 282.976654,388.839233 
	C283.118896,388.592468 283.261169,388.345703 283.876831,387.779694 
	C287.006470,382.263184 288.571960,376.866302 284.406281,370.939362 
	C279.248566,363.600983 272.289673,364.627502 264.216858,366.064117 
	C256.145935,366.030792 248.075027,365.997437 239.450226,365.396393 
	C228.954163,362.962494 218.458084,360.528595 207.554352,357.536224 
	C181.391251,345.807953 161.747665,327.304626 149.402573,301.315704 
	C143.377563,288.631805 139.279480,275.358459 137.968857,260.323944 
	C138.607407,249.857620 138.538956,239.283737 140.109406,228.959167 
	C141.353958,220.777115 144.607712,212.900665 147.419800,204.632492 
	C147.583603,204.335342 147.747406,204.038193 148.330368,203.509598 
	C148.359177,203.045792 148.388000,202.582001 148.764145,201.609604 
	C148.795197,201.406677 148.826263,201.203766 149.296173,200.740875 
	C149.512512,199.866562 149.728836,198.992264 150.002914,198.079208 
	C150.002914,198.079208 149.935577,198.066895 150.027725,197.609695 
	C150.027725,197.609695 150.038269,197.143417 150.719391,196.926056 
	C152.210663,194.046799 153.701935,191.167542 155.381470,187.745407 
	C155.535385,180.201599 152.448547,175.084503 146.355530,172.782990 
	C140.651764,170.628510 135.113220,172.192001 130.265640,177.639923 
	C126.825035,184.110077 123.384438,190.580231 119.367554,197.439575 
	C113.506279,212.053772 108.831467,226.937195 108.396355,243.491272 
	C109.031067,254.658890 108.881462,265.945282 110.548965,276.956512 
	C111.879944,285.745544 115.424652,294.199371 118.065437,303.512573 
	C118.434113,304.362732 118.802788,305.212860 119.316917,306.787048 
	C120.643951,310.072693 121.518997,313.643768 123.380516,316.591919 
	C129.641891,326.508270 135.952698,336.423889 142.876389,345.877014 
	C145.778046,349.838745 150.263596,352.640381 154.158707,356.572021 
	C154.682617,357.143677 155.206512,357.715302 156.043213,358.836029 
M208.454971,145.532730 
	C207.464172,143.230209 206.357635,141.713150 204.288071,144.724487 
	C203.924713,145.253220 203.238861,145.741745 202.619446,145.880493 
	C200.381973,146.381638 198.109283,146.725540 195.162766,147.138229 
	C192.070526,149.972290 188.978287,152.806351 185.437546,155.925888 
	C185.360413,156.256851 185.283264,156.587799 184.986542,157.020218 
	C184.986542,157.020218 185.040359,157.256027 184.484009,157.723877 
	C182.307419,165.737244 180.826187,173.786713 183.091568,182.958252 
	C183.182922,192.311188 183.274292,201.664124 183.195267,211.932922 
	C183.261108,216.614075 183.326950,221.295212 183.200851,226.900055 
	C183.679565,238.599060 181.378189,250.471741 185.653198,262.565521 
	C191.917694,276.391937 203.516754,281.591736 217.766464,281.690063 
	C248.583282,281.902740 279.402527,281.783020 310.220642,281.742981 
	C311.781097,281.740936 313.340881,281.209503 315.672974,280.886444 
	C316.185486,280.844604 316.697968,280.802765 317.780121,280.841766 
	C318.489471,280.275818 319.198822,279.709869 320.441376,278.907562 
	C320.726196,278.659149 321.010986,278.410706 321.865784,277.660919 
	C322.619873,275.209045 323.373993,272.757202 324.668976,270.125580 
	C324.464142,268.013855 324.439575,265.865967 324.024567,263.796417 
	C321.721649,252.312897 313.470490,245.324814 301.260498,244.402420 
	C281.303436,244.375595 261.346313,244.357513 241.389282,244.318558 
	C230.191925,244.296707 225.025650,239.108841 224.994064,227.879181 
	C224.944489,210.249771 224.907349,192.620316 224.991302,174.061874 
	C225.000870,170.113266 225.152008,166.158905 224.992188,162.217163 
	C224.590637,152.313797 217.964996,145.701477 208.454971,145.532730 
z"/>
<path fill="#02A9F3" opacity="1.000000" stroke="none" 
	d="
M321.295807,278.162292 
	C321.010986,278.410706 320.726196,278.659149 319.917389,279.093628 
	C318.665771,279.773438 317.938141,280.267181 317.210480,280.760925 
	C316.697968,280.802765 316.185486,280.844604 315.083740,280.581848 
	C312.615814,279.872742 310.741028,279.140015 308.857819,279.117645 
	C297.576385,278.983612 286.292999,279.013062 274.991760,278.616089 
	C273.538818,276.847992 272.310211,275.089722 270.626343,274.131714 
	C267.327789,272.255096 263.723419,270.926086 260.338684,269.189056 
	C252.520248,265.176697 244.679474,261.195953 237.004883,256.920349 
	C233.170319,254.784073 229.653595,252.067352 226.047043,249.536301 
	C224.439713,248.408310 222.985214,247.065063 221.426575,245.864670 
	C218.337189,243.485306 214.124039,241.765671 212.342941,238.648972 
	C208.304932,231.582886 201.742218,227.543121 195.737076,222.892395 
	C192.182663,220.139648 188.111526,218.299820 186.842712,213.413605 
	C186.583191,212.414200 185.042130,211.747574 184.072815,210.471100 
	C184.088135,205.990479 184.122452,201.966278 184.482697,198.029053 
	C187.777664,200.688278 190.777802,203.225662 193.709106,205.840195 
	C199.478424,210.986053 205.135193,216.260803 210.984177,221.313644 
	C214.517548,224.366074 218.324722,227.101547 222.012238,230.346039 
	C222.346436,231.839233 222.677277,232.965805 223.058655,234.451065 
	C224.164413,239.645096 226.774841,243.547684 231.464752,245.064987 
	C235.429596,246.347717 239.758926,246.503876 243.964996,247.510742 
	C245.196503,249.337021 246.102402,251.299454 247.633102,252.200882 
	C254.295288,256.124237 261.074005,259.865570 267.947235,263.407471 
	C270.993744,264.977356 274.287323,266.215454 277.605408,267.079010 
	C284.009583,268.745605 290.456604,270.391479 296.985779,271.397095 
	C304.914001,272.618195 312.945465,273.168762 320.803528,274.321594 
	C320.881775,275.809967 321.088776,276.986145 321.295807,278.162292 
z"/>
<path fill="#2A43FB" opacity="1.000000" stroke="none" 
	d="
M117.986725,302.801971 
	C115.424652,294.199371 111.879944,285.745544 110.548965,276.956512 
	C108.881462,265.945282 109.031067,254.658890 109.079109,243.376190 
	C110.176514,247.920547 110.813095,252.574432 110.929291,257.241272 
	C111.009293,260.454773 111.733627,262.340393 115.386993,262.006714 
	C124.896774,261.138123 131.722336,265.541382 136.964783,273.495850 
	C140.453598,284.090118 143.857498,294.316223 147.181015,304.959839 
	C143.344727,316.843170 139.658829,322.935211 129.672913,320.816711 
	C127.270607,316.410156 125.113983,312.240631 122.919296,307.694519 
	C120.164749,299.613983 117.448280,291.910065 114.731804,284.206116 
	C114.226418,285.537537 114.231514,286.782776 114.499466,287.968597 
	C115.618912,292.922760 116.817284,297.859100 117.986725,302.801971 
z"/>
<path fill="#681FF6" opacity="1.000000" stroke="none" 
	d="
M263.194305,346.953674 
	C262.707794,347.043732 262.221313,347.133789 261.051117,346.861481 
	C257.235962,346.320190 254.083160,346.313416 250.977173,345.928741 
	C243.010895,344.942169 234.893433,344.459900 227.985413,340.502014 
	C229.603256,336.678986 231.081696,333.185394 233.045837,328.544067 
	C222.422897,328.627563 215.924194,320.852234 207.726410,316.733398 
	C200.160080,312.931854 195.564835,303.216919 189.735641,296.196442 
	C187.896149,296.851044 186.364578,297.396088 184.833008,297.941101 
	C185.742889,296.043701 186.371628,292.800842 187.623367,292.539276 
	C189.966110,292.049713 192.692551,293.201294 195.211304,293.855255 
	C196.089676,294.083252 196.826233,294.857483 197.812653,296.056671 
	C202.573441,300.506622 207.149155,304.282135 211.936646,308.335999 
	C221.422119,312.705688 230.634354,316.946259 240.003998,320.804626 
	C243.136703,322.094666 246.671432,322.408447 250.279114,323.392090 
	C251.430283,324.033630 252.306046,324.498718 253.222137,324.862091 
	C260.716095,327.834351 266.977173,332.017700 269.122345,340.476288 
	C269.435760,341.712311 270.324188,342.802521 270.689240,344.195679 
	C268.889099,344.928833 267.346252,345.426453 265.659485,346.008392 
	C265.322021,346.214752 265.171997,346.377014 265.065460,346.579498 
	C264.810974,346.659485 264.556458,346.739502 263.825562,346.859711 
	C263.349152,346.899933 263.194305,346.953674 263.194305,346.953674 
z"/>
<path fill="#4A3FFB" opacity="1.000000" stroke="none" 
	d="
M136.879868,273.127655 
	C131.722336,265.541382 124.896774,261.138123 115.386993,262.006714 
	C111.733627,262.340393 111.009293,260.454773 110.929291,257.241272 
	C110.813095,252.574432 110.176514,247.920547 109.403732,243.095520 
	C108.831467,226.937195 113.506279,212.053772 119.731873,197.446396 
	C120.096191,197.453217 120.197334,197.872971 120.113831,198.270874 
	C119.012482,202.466736 117.994629,206.264679 116.952789,210.444565 
	C116.395798,212.721054 115.736832,214.590759 115.357010,216.515533 
	C114.646713,220.114960 117.781990,224.027420 121.169846,223.932526 
	C127.839294,223.745758 133.807602,227.391663 136.006058,233.459106 
	C135.801682,237.053482 135.414093,240.193909 135.455444,243.328705 
	C135.546844,250.258194 135.854034,257.184845 136.123627,264.509827 
	C136.409317,267.647217 136.644592,270.387451 136.879868,273.127655 
z"/>
<path fill="#F7911E" opacity="1.000000" stroke="none" 
	d="
M362.217346,274.258667 
	C362.240295,273.737762 362.263214,273.216858 362.609985,272.078400 
	C367.010681,261.620544 365.828674,251.243881 366.273499,240.748657 
	C367.678894,238.397003 368.352448,235.218491 370.112274,234.412918 
	C376.081757,231.680298 377.011444,226.086578 379.371521,221.075012 
	C381.433502,223.598587 383.978577,225.841736 384.700562,228.567734 
	C386.289886,234.568588 386.958740,240.813263 387.846069,247.326279 
	C387.508636,249.989700 386.290009,253.108368 387.337952,254.430298 
	C390.825867,258.830231 388.270844,262.233215 385.822906,264.960297 
	C379.741302,271.735443 373.854462,279.347565 363.012604,277.640198 
	C363.000214,276.482422 362.999084,275.710449 362.900696,274.786926 
	C362.664276,274.423981 362.469727,274.298462 362.202759,274.248840 
	C362.185699,274.238831 362.217346,274.258667 362.217346,274.258667 
z"/>
<path fill="#019DF6" opacity="1.000000" stroke="none" 
	d="
M184.091812,210.927551 
	C185.042130,211.747574 186.583191,212.414200 186.842712,213.413605 
	C188.111526,218.299820 192.182663,220.139648 195.737076,222.892395 
	C201.742218,227.543121 208.304932,231.582886 212.342941,238.648972 
	C214.124039,241.765671 218.337189,243.485306 221.426575,245.864670 
	C222.985214,247.065063 224.439713,248.408310 226.047043,249.536301 
	C229.653595,252.067352 233.170319,254.784073 237.004883,256.920349 
	C244.679474,261.195953 252.520248,265.176697 260.338684,269.189056 
	C263.723419,270.926086 267.327789,272.255096 270.626343,274.131714 
	C272.310211,275.089722 273.538818,276.847992 274.523224,278.632812 
	C268.715881,279.014069 263.358551,279.007019 257.986023,278.633728 
	C257.506927,277.237488 257.329468,275.775787 256.532837,275.247223 
	C251.178452,271.694458 245.828827,268.094299 240.216583,264.980011 
	C232.280045,260.575928 223.781113,257.107788 216.150009,252.253265 
	C208.935379,247.663681 202.682632,241.589798 195.715714,236.573013 
	C191.274567,233.375015 185.584991,231.758255 183.392807,225.976364 
	C183.326950,221.295212 183.261108,216.614075 183.463196,211.462280 
	C183.731110,210.991653 184.091812,210.927551 184.091812,210.927551 
z"/>
<path fill="#5A19EA" opacity="1.000000" stroke="none" 
	d="
M184.690125,298.324341 
	C186.364578,297.396088 187.896149,296.851044 189.735641,296.196442 
	C195.564835,303.216919 200.160080,312.931854 207.726410,316.733398 
	C215.924194,320.852234 222.422897,328.627563 233.045837,328.544067 
	C231.081696,333.185394 229.603256,336.678986 227.985413,340.502014 
	C234.893433,344.459900 243.010895,344.942169 250.977173,345.928741 
	C254.083160,346.313416 257.235962,346.320190 260.691284,346.758911 
	C236.141174,349.230713 214.653778,341.888947 197.598999,323.480072 
	C192.885483,318.392273 189.579193,311.933838 186.038849,305.864166 
	C184.874420,303.867798 185.007507,301.114655 184.690125,298.324341 
M222.142792,338.442047 
	C222.088058,338.151154 222.033325,337.860291 221.978577,337.569397 
	C221.911957,337.857574 221.845337,338.145721 222.142792,338.442047 
z"/>
<path fill="#0670E6" opacity="1.000000" stroke="none" 
	d="
M258.001221,279.000000 
	C263.358551,279.007019 268.715881,279.014069 274.541748,279.004395 
	C286.292999,279.013062 297.576385,278.983612 308.857819,279.117645 
	C310.741028,279.140015 312.615814,279.872742 314.697723,280.600891 
	C313.340881,281.209503 311.781097,281.740936 310.220642,281.742981 
	C279.402527,281.783020 248.583282,281.902740 217.766464,281.690063 
	C203.516754,281.591736 191.917694,276.391937 185.831345,262.115723 
	C186.339661,260.114716 186.669815,258.563446 187.416870,257.015076 
	C190.087067,257.455017 192.573212,257.424713 194.552841,258.411102 
	C202.570480,262.405914 210.492950,266.603699 218.334793,270.936127 
	C226.372238,275.376556 233.875153,281.328674 244.478912,278.998779 
	C249.295486,279.001648 253.648346,279.000824 258.001221,279.000000 
z"/>
<path fill="#FC9D15" opacity="1.000000" stroke="none" 
	d="
M329.061035,372.163422 
	C328.915985,372.337036 328.770966,372.510681 328.032532,372.546417 
	C323.304565,371.133728 322.323944,368.789612 324.440918,364.854553 
	C325.768250,362.387329 326.736633,359.642944 327.323151,356.906525 
	C327.530090,355.941071 326.358063,353.936432 325.408325,353.616913 
	C323.234100,352.885498 320.808868,352.900146 318.485565,352.611847 
	C318.516357,352.178345 318.547180,351.744873 318.578003,351.311371 
	C316.705780,351.871490 314.833557,352.431610 313.142273,352.707550 
	C321.231079,345.301453 329.138947,338.179565 337.489624,331.041534 
	C338.760529,331.018646 339.589722,331.036865 340.416565,331.000793 
	C343.884949,330.849609 346.055908,330.787170 345.577820,335.987000 
	C345.092041,341.271301 347.031342,346.783630 347.980927,352.183380 
	C348.044617,352.545288 348.718384,352.799896 349.087830,353.478271 
	C349.033691,354.601776 349.000092,355.351410 348.966492,356.101044 
	C348.949677,356.426270 348.802948,356.674805 348.075745,357.032562 
	C347.409790,357.495636 347.194427,357.772797 346.979065,358.049957 
	C346.979065,358.049957 346.985413,357.986664 346.704529,358.048676 
	C345.935760,358.735962 345.447937,359.361206 344.960083,359.986481 
	C344.960083,359.986481 344.987000,359.985443 344.626587,359.993408 
	C342.316956,361.847839 340.367767,363.694336 338.418549,365.540833 
	C338.304840,365.368134 338.191132,365.195465 337.904236,365.172791 
	C336.460785,366.513794 335.190552,367.704834 333.920349,368.895874 
	C333.920349,368.895874 333.960449,369.005615 333.594360,368.980530 
	C331.839172,370.024750 330.450104,371.094086 329.061035,372.163422 
z"/>
<path fill="#0290F3" opacity="1.000000" stroke="none" 
	d="
M187.000000,257.012207 
	C186.669815,258.563446 186.339661,260.114716 185.699860,261.807983 
	C181.378189,250.471741 183.679565,238.599060 183.296829,226.438202 
	C185.584991,231.758255 191.274567,233.375015 195.715714,236.573013 
	C202.682632,241.589798 208.935379,247.663681 216.150009,252.253265 
	C223.781113,257.107788 232.280045,260.575928 240.216583,264.980011 
	C245.828827,268.094299 251.178452,271.694458 256.532837,275.247223 
	C257.329468,275.775787 257.506927,277.237488 257.986023,278.633728 
	C253.648346,279.000824 249.295486,279.001648 244.411255,278.659546 
	C238.320145,274.284271 232.959885,269.933380 227.152451,266.296539 
	C219.046051,261.220032 210.554214,256.763458 202.326340,251.874908 
	C196.902954,248.652618 191.653809,245.137054 186.326645,241.752808 
	C185.919464,242.088928 185.512299,242.425034 185.105133,242.761154 
	C185.993103,247.489395 182.768082,252.572342 187.000000,257.012207 
z"/>
<path fill="#03C7F8" opacity="1.000000" stroke="none" 
	d="
M223.008133,234.092377 
	C222.677277,232.965805 222.346436,231.839233 222.013123,229.880676 
	C222.010574,228.386078 221.964691,227.719818 222.017395,227.061432 
	C222.685486,218.714905 222.937698,210.603638 212.422653,207.785263 
	C211.721924,207.597443 211.226028,206.676086 210.615250,206.117355 
	C202.126862,198.352295 194.484161,189.573639 184.097046,183.745743 
	C183.771744,182.991577 183.496811,182.514496 183.221893,182.037430 
	C180.826187,173.786713 182.307419,165.737244 184.806000,157.806427 
	C185.177994,158.527176 185.227997,159.165405 185.149841,160.216080 
	C183.232193,166.817093 188.025009,174.560349 193.111877,177.194885 
	C199.258301,180.378159 205.612473,184.382309 209.852615,189.658005 
	C213.599411,194.319855 217.057632,197.562485 222.972809,198.547958 
	C223.017319,210.703461 223.012726,222.397919 223.008133,234.092377 
z"/>
<path fill="#07E5FA" opacity="1.000000" stroke="none" 
	d="
M185.278015,159.803619 
	C185.227997,159.165405 185.177994,158.527176 185.084167,157.572495 
	C185.040359,157.256027 184.986542,157.020218 185.281113,156.802979 
	C185.679138,156.270630 185.782593,155.955521 185.886032,155.640411 
	C188.978287,152.806351 192.070526,149.972290 195.632706,147.404587 
	C200.356918,147.400894 204.611191,147.130844 209.187195,147.017303 
	C218.265244,150.575516 222.675247,157.088028 223.180969,166.795059 
	C223.039780,171.847351 222.955032,176.459152 222.536957,180.987030 
	C220.622192,179.515869 219.010757,178.161026 217.469025,176.731018 
	C216.278183,175.626450 215.232224,173.497650 214.023010,173.422897 
	C206.613129,172.964859 203.062500,167.566467 200.818970,162.038300 
	C198.545944,156.437469 194.761078,156.622314 190.494781,157.163757 
	C188.673508,157.394897 187.012070,158.885391 185.278015,159.803619 
z"/>
<path fill="#E43BD7" opacity="1.000000" stroke="none" 
	d="
M271.811279,134.162918 
	C271.138031,133.973282 270.464752,133.783646 269.127991,133.161972 
	C266.632355,131.821625 264.800232,130.913315 262.842468,129.809769 
	C262.514404,129.371780 262.267273,129.189606 261.956299,129.084625 
	C261.937103,129.101212 261.894531,129.073639 261.926819,128.656281 
	C261.966248,123.795212 262.449768,119.281273 261.809021,114.933022 
	C261.397644,112.141571 259.330536,109.594131 258.457642,106.891037 
	C263.646942,107.499046 268.384247,108.153320 273.253601,109.126648 
	C274.984253,110.837051 276.659729,112.150215 278.168243,113.633194 
	C284.931152,120.281570 288.090363,128.711319 289.696594,137.882660 
	C288.802155,138.359406 288.159698,138.719467 287.517273,139.079529 
	C287.517273,139.079544 287.126526,138.798935 286.935547,138.424255 
	C286.293549,138.015381 285.842499,137.981186 285.391479,137.946976 
	C285.108337,137.869034 284.825165,137.791092 284.074982,137.360474 
	C283.297302,136.976547 282.986633,136.945282 282.675934,136.914001 
	C279.269226,136.054413 275.862488,135.194824 272.059875,134.217667 
	C271.664001,134.100098 271.811279,134.162918 271.811279,134.162918 
z"/>
<path fill="#04BAF8" opacity="1.000000" stroke="none" 
	d="
M204.030945,386.917664 
	C200.051422,385.424164 196.071899,383.930664 192.243042,382.119141 
	C194.805237,381.663971 197.315308,381.042358 199.604156,381.508087 
	C202.704910,382.138947 204.992889,382.019714 206.707535,378.993927 
	C209.406158,374.231659 212.293381,369.576233 215.526581,364.885437 
	C218.374390,365.200439 220.794937,365.517853 223.218689,365.808289 
	C228.714752,366.466858 234.212402,367.112091 239.843994,368.010345 
	C240.030273,368.436615 240.081970,368.615265 239.869659,369.056427 
	C238.015152,370.987518 236.328171,372.575439 234.852341,374.339966 
	C230.505554,379.537018 226.242462,384.804108 221.520844,390.040405 
	C218.834106,389.715546 216.557922,389.475220 214.315765,389.053833 
	C210.875198,388.407196 207.458038,387.635986 204.030945,386.917664 
z"/>
<path fill="#EE4458" opacity="1.000000" stroke="none" 
	d="
M357.038818,208.833527 
	C351.780426,199.405899 346.613831,189.925156 341.205841,180.584122 
	C339.649750,177.896240 337.397766,175.611206 335.288574,172.574493 
	C335.621216,171.743042 336.257507,171.140900 336.615631,171.276016 
	C337.790497,171.719223 338.864319,172.430206 340.028259,173.118668 
	C340.079529,173.199051 340.321686,173.199677 340.321686,173.199677 
	C340.321686,173.199677 340.038849,172.976303 340.027222,172.554810 
	C340.660309,168.141830 341.305023,164.150330 342.375061,160.114700 
	C344.217468,160.074829 345.634521,160.079086 347.195435,160.396729 
	C349.023315,163.860718 349.933563,168.126434 352.545898,169.939102 
	C358.752808,174.245911 360.952271,180.415588 362.726990,187.257690 
	C361.869293,189.362442 361.483337,191.317917 360.566345,192.980499 
	C356.931946,199.569962 356.870514,199.535995 357.018341,207.363510 
	C357.027618,207.853470 357.032074,208.343521 357.038818,208.833527 
z"/>
<path fill="#F26A38" opacity="1.000000" stroke="none" 
	d="
M357.066315,209.234283 
	C357.032074,208.343521 357.027618,207.853470 357.018341,207.363510 
	C356.870514,199.535995 356.931946,199.569962 360.566345,192.980499 
	C361.483337,191.317917 361.869293,189.362442 363.098694,187.323288 
	C366.132355,187.761230 368.566620,188.417450 371.022583,189.474243 
	C372.001617,194.702332 373.197876,199.499390 373.818268,204.369812 
	C374.141449,206.906799 374.349640,210.231644 373.025513,212.041687 
	C370.398926,215.632233 366.674255,218.419510 363.593109,221.357849 
	C364.415222,227.961853 365.227356,234.485565 366.039490,241.009262 
	C365.828674,251.243881 367.010681,261.620544 362.676819,271.693115 
	C366.295929,250.678741 363.840790,229.973404 357.066315,209.234283 
z"/>
<path fill="#F7911E" opacity="1.000000" stroke="none" 
	d="
M312.961334,352.991730 
	C314.833557,352.431610 316.705780,351.871490 318.578003,351.311371 
	C318.547180,351.744873 318.516357,352.178345 318.485565,352.611847 
	C320.808868,352.900146 323.234100,352.885498 325.408325,353.616913 
	C326.358063,353.936432 327.530090,355.941071 327.323151,356.906525 
	C326.736633,359.642944 325.768250,362.387329 324.440918,364.854553 
	C322.323944,368.789612 323.304565,371.133728 327.700592,372.616943 
	C318.393158,380.620300 311.473022,381.419952 304.070862,374.908661 
	C300.805725,369.413025 300.668213,364.343292 304.218750,359.979706 
	C306.519928,357.151581 310.006134,355.287659 312.961334,352.991730 
z"/>
<path fill="#02A9F3" opacity="1.000000" stroke="none" 
	d="
M215.100784,364.875580 
	C212.293381,369.576233 209.406158,374.231659 206.707535,378.993927 
	C204.992889,382.019714 202.704910,382.138947 199.604156,381.508087 
	C197.315308,381.042358 194.805237,381.663971 192.051880,381.890625 
	C188.352386,380.036316 184.994720,378.092499 181.187607,375.811768 
	C180.451996,375.006927 180.165848,374.538940 180.078384,373.769470 
	C181.752930,372.506317 183.128952,371.315125 184.721756,370.622345 
	C191.957458,367.475311 192.998230,365.975983 192.978592,357.685181 
	C193.688644,356.528137 194.373489,355.720184 195.051086,354.952087 
	C195.043839,354.991943 195.040024,354.914459 195.223801,355.147949 
	C195.957382,355.569000 196.507202,355.756561 197.309631,355.965424 
	C197.728378,356.017700 197.894516,356.048706 198.198669,356.259674 
	C198.558273,356.659058 198.820389,356.806549 199.475983,356.945953 
	C202.284576,358.053619 204.740189,359.097473 207.442047,360.352051 
	C210.159134,362.000366 212.629959,363.437958 215.100784,364.875580 
z"/>
<path fill="#8351F9" opacity="1.000000" stroke="none" 
	d="
M136.073196,264.112640 
	C135.854034,257.184845 135.546844,250.258194 135.455444,243.328705 
	C135.414093,240.193909 135.801682,237.053482 136.246674,233.164673 
	C137.003098,228.945389 137.507523,225.477051 138.206955,221.875366 
	C138.646057,221.534134 138.833435,221.283813 138.967911,220.659592 
	C138.979950,219.886276 138.988174,219.444427 139.258636,218.753571 
	C140.661530,214.895691 141.820724,211.292526 142.938324,207.676498 
	C144.448700,202.789520 140.468033,196.662537 135.474289,196.147919 
	C131.635666,195.752365 127.797356,195.353683 123.977089,194.584747 
	C124.344322,193.112335 124.572868,191.954697 125.061096,190.919540 
	C129.846222,180.774048 132.425461,179.846893 142.289520,184.642395 
	C149.428696,188.113190 150.484970,189.817261 150.038269,197.143417 
	C150.038269,197.143417 150.027725,197.609695 149.901123,197.875885 
	C149.774536,198.142075 149.716843,198.356339 149.716843,198.356339 
	C149.716843,198.356339 149.945160,198.117950 149.945160,198.117950 
	C149.728836,198.992264 149.512512,199.866562 148.764175,200.886353 
	C145.513504,201.565018 144.947586,202.803101 146.969315,204.888519 
	C144.607712,212.900665 141.353958,220.777115 140.109406,228.959167 
	C138.538956,239.283737 138.607407,249.857620 137.760864,260.966705 
	C137.059631,262.443848 136.566406,263.278259 136.073196,264.112640 
z"/>
<path fill="#03C7F8" opacity="1.000000" stroke="none" 
	d="
M321.580811,277.911621 
	C321.088776,276.986145 320.881775,275.809967 320.876984,273.976196 
	C322.396057,268.094666 317.806030,269.625519 315.779175,269.178223 
	C302.199432,266.181274 288.509949,263.680145 274.936371,260.657562 
	C271.962952,259.995422 269.250336,257.987854 266.528198,256.409149 
	C261.319641,253.388458 256.190521,250.230789 251.491959,247.081848 
	C257.286835,247.080154 262.618134,247.126556 267.968658,247.543182 
	C268.393127,253.213120 273.179108,253.726715 276.557922,254.702423 
	C284.910248,257.114319 293.510162,258.681213 302.030945,260.491821 
	C306.017914,261.339020 310.041290,262.406372 314.069305,262.504333 
	C316.090607,262.553467 318.159271,260.655121 320.439941,259.928345 
	C321.824921,263.581238 322.976501,266.943268 324.128082,270.305328 
	C323.373993,272.757202 322.619873,275.209045 321.580811,277.911621 
z"/>
<path fill="#EFABD8" opacity="1.000000" stroke="none" 
	d="
M273.121521,108.807602 
	C268.384247,108.153320 263.646942,107.499046 257.995850,106.829483 
	C252.729706,106.860909 248.377365,106.907616 243.578949,106.924423 
	C235.100815,106.236984 229.014526,108.769203 226.371002,117.043137 
	C226.249023,117.424980 225.633636,117.649193 225.248047,117.946823 
	C224.576706,109.651985 230.260880,104.538719 240.347702,103.918526 
	C260.591461,102.673836 280.302551,105.285263 299.358429,112.153130 
	C317.255524,118.603340 333.343842,128.210144 347.365448,141.142487 
	C348.557495,142.241898 349.451416,143.664566 350.703766,145.359268 
	C350.531250,146.173141 350.138763,146.564835 349.486755,146.790680 
	C345.240082,143.218765 341.546417,139.367859 337.202759,136.502243 
	C328.981781,131.078690 320.387634,126.220818 311.941223,121.091919 
	C311.933960,121.055916 311.869080,121.021423 311.799927,120.860306 
	C311.588837,120.488983 311.391113,120.385109 310.788086,120.301598 
	C310.204163,120.165329 309.969604,120.115028 309.578339,119.802711 
	C308.279419,119.118340 307.137207,118.695976 305.685577,118.072861 
	C294.624603,114.850601 283.873077,111.829102 273.121521,108.807602 
z"/>
<path fill="#E6B047" opacity="1.000000" stroke="none" 
	d="
M391.643188,222.013763 
	C395.337067,240.636841 395.091888,259.252960 391.661713,277.886475 
	C388.770447,293.592438 383.657166,308.645233 375.437714,322.204926 
	C368.994141,332.834900 360.622925,342.296478 352.710144,352.316681 
	C352.312134,352.356232 352.018860,352.019287 352.090332,351.680511 
	C356.620697,345.608063 361.571075,340.183594 365.419769,334.066040 
	C370.782166,325.542450 375.902618,316.762177 380.024536,307.596191 
	C383.244629,300.435547 384.787384,292.520599 387.082153,284.752441 
	C387.088837,284.563995 387.047913,284.189178 387.251648,284.015686 
	C387.635101,283.537842 387.814850,283.233521 388.031250,282.523529 
	C390.876068,270.521667 391.618652,258.753540 391.008392,246.419601 
	C390.315308,237.079681 389.614990,228.192429 389.127563,219.470184 
	C390.108002,220.428070 390.875580,221.220917 391.643188,222.013763 
z"/>
<path fill="#66C2ED" opacity="1.000000" stroke="none" 
	d="
M136.123627,264.509827 
	C136.566406,263.278259 137.059631,262.443848 137.792831,261.452881 
	C139.279480,275.358459 143.377563,288.631805 149.402573,301.315704 
	C161.747665,327.304626 181.391251,345.807953 207.657196,358.069580 
	C207.571960,359.115753 207.383881,359.628540 207.195801,360.141327 
	C204.740189,359.097473 202.284576,358.053619 199.339508,356.762756 
	C198.629044,356.294067 198.365921,356.148743 198.060669,356.079712 
	C197.894516,356.048706 197.728378,356.017700 197.117493,355.743408 
	C196.128494,355.304871 195.584259,355.109680 195.040024,354.914490 
	C195.040024,354.914459 195.043839,354.991943 194.836273,354.695984 
	C184.808014,346.603241 174.987350,338.806488 165.052795,330.683228 
	C161.495270,325.685577 157.937515,321.093079 154.644104,316.318237 
	C152.016113,312.508179 149.710236,308.475922 147.261383,304.542297 
	C143.857498,294.316223 140.453598,284.090118 136.964783,273.495850 
	C136.644592,270.387451 136.409317,267.647217 136.123627,264.509827 
z"/>
<path fill="#AD2EE3" opacity="1.000000" stroke="none" 
	d="
M225.275391,118.332924 
	C225.633636,117.649193 226.249023,117.424980 226.371002,117.043137 
	C229.014526,108.769203 235.100815,106.236984 243.281799,107.161575 
	C241.742264,107.870766 240.053787,108.312904 238.307144,108.770271 
	C238.955795,113.298439 240.732285,117.735931 239.848495,121.558334 
	C238.758163,126.274002 240.548111,128.208649 244.142105,128.595688 
	C250.008713,129.227448 255.972015,128.961090 261.894531,129.073639 
	C261.894531,129.073639 261.937103,129.101212 262.074219,129.285706 
	C262.420868,129.708923 262.673126,129.887192 262.968079,130.005005 
	C264.800232,130.913315 266.632355,131.821625 268.647644,132.947296 
	C258.334595,132.477707 247.821030,131.982727 237.348389,131.035355 
	C230.516525,130.417328 226.218216,125.674072 225.275391,118.332924 
z"/>
<path fill="#E6B047" opacity="1.000000" stroke="none" 
	d="
M313.142273,352.707550 
	C310.006134,355.287659 306.519928,357.151581 304.218750,359.979706 
	C300.668213,364.343292 300.805725,369.413025 303.899048,374.548340 
	C297.676056,367.412292 298.946503,358.195496 307.284058,352.904816 
	C322.416718,343.302246 335.168579,331.292816 344.745544,316.121185 
	C351.794189,304.954834 357.805176,293.272064 360.299377,280.095062 
	C360.633545,278.329681 361.346771,276.636078 362.050903,274.583954 
	C362.217346,274.258667 362.185699,274.238831 362.256165,274.424438 
	C362.524689,274.771912 362.748474,274.881409 362.997955,274.938507 
	C362.999084,275.710449 363.000214,276.482422 362.760681,277.928650 
	C360.662994,285.379852 358.805969,292.156738 356.719666,299.197662 
	C351.609161,310.978271 345.162598,321.531555 337.046814,331.057648 
	C329.138947,338.179565 321.231079,345.301453 313.142273,352.707550 
z"/>
<path fill="#66C2ED" opacity="1.000000" stroke="none" 
	d="
M267.949463,247.172958 
	C262.618134,247.126556 257.286835,247.080154 251.050003,247.032516 
	C248.071976,247.073715 245.999466,247.116165 243.926941,247.158600 
	C239.758926,246.503876 235.429596,246.347717 231.464752,245.064987 
	C226.774841,243.547684 224.164413,239.645096 223.058655,234.451065 
	C223.012726,222.397919 223.017319,210.703461 223.028870,198.087708 
	C223.001694,194.123306 222.967529,191.080200 222.977936,187.693329 
	C222.988251,186.889694 222.953979,186.429855 222.962250,185.561584 
	C222.959976,183.792419 222.915131,182.431702 222.870300,181.070969 
	C222.955032,176.459152 223.039780,171.847351 223.374634,167.077377 
	C224.038162,169.609772 224.451553,172.300339 224.864944,174.990891 
	C224.907349,192.620316 224.944489,210.249771 224.994064,227.879181 
	C225.025650,239.108841 230.191925,244.296707 241.389282,244.318558 
	C261.346313,244.357513 281.303436,244.375595 301.121124,244.701065 
	C281.212158,244.999710 261.442535,244.999710 241.672943,244.999710 
	C245.145233,246.028229 248.616287,245.961960 252.083984,246.041626 
	C260.034943,246.224243 267.984253,246.478058 275.503967,246.792419 
	C272.698944,246.978882 270.324219,247.075928 267.949463,247.172958 
z"/>
<path fill="#F1C898" opacity="1.000000" stroke="none" 
	d="
M391.585724,221.625992 
	C390.875580,221.220917 390.108002,220.428070 389.052612,219.061691 
	C388.639862,217.954742 388.514954,217.421326 388.413605,216.721588 
	C388.362854,216.325455 388.216003,216.159622 387.930786,215.686981 
	C384.873871,207.214035 381.882812,199.111862 378.862793,190.668655 
	C378.460480,189.524261 378.087097,188.720917 377.710907,187.585205 
	C376.400269,184.755844 375.364166,182.063995 373.737366,179.795792 
	C366.813599,170.142166 359.714966,160.613983 352.584167,150.743500 
	C351.574219,149.283493 350.660248,148.120010 349.746277,146.956512 
	C350.138763,146.564835 350.531250,146.173141 351.023163,145.511932 
	C363.393036,155.765488 372.262634,169.003036 378.727051,183.469040 
	C384.126801,195.552612 387.344330,208.611343 391.585724,221.625992 
z"/>
<path fill="#9364F6" opacity="1.000000" stroke="none" 
	d="
M150.378830,197.034729 
	C150.484970,189.817261 149.428696,188.113190 142.289520,184.642395 
	C132.425461,179.846893 129.846222,180.774048 125.061096,190.919540 
	C124.572868,191.954697 124.344322,193.112335 123.718102,194.742920 
	C122.359726,196.139450 121.278526,197.006210 120.197327,197.872955 
	C120.197334,197.872971 120.096191,197.453217 120.020020,197.251801 
	C123.384438,190.580231 126.825035,184.110077 130.864685,177.542694 
	C132.256729,177.244278 133.198990,177.252533 133.819931,176.809982 
	C141.129684,171.600510 151.485397,176.185242 153.337967,185.706772 
	C153.521851,186.651810 154.554489,187.431732 155.193207,188.288284 
	C153.701935,191.167542 152.210663,194.046799 150.378830,197.034729 
z"/>
<path fill="#E12E76" opacity="1.000000" stroke="none" 
	d="
M341.949707,160.158844 
	C341.305023,164.150330 340.660309,168.141830 340.010010,172.568542 
	C340.004395,173.003754 339.976990,173.038284 339.976990,173.038284 
	C338.864319,172.430206 337.790497,171.719223 336.615631,171.276016 
	C336.257507,171.140900 335.621216,171.743042 335.112305,172.267914 
	C322.007660,157.737213 306.457428,146.454483 287.677612,139.327148 
	C288.159698,138.719467 288.802155,138.359406 290.004517,138.094116 
	C299.064667,142.516220 307.564911,146.843536 316.292725,151.387756 
	C321.131134,155.635757 325.670166,159.755737 330.431854,163.599899 
	C331.127228,164.161270 332.956055,163.619141 334.135529,163.219284 
	C336.781982,162.322128 339.349854,161.193329 341.949707,160.158844 
z"/>
<path fill="#9364F6" opacity="1.000000" stroke="none" 
	d="
M250.022400,323.168488 
	C246.671432,322.408447 243.136703,322.094666 240.003998,320.804626 
	C230.634354,316.946259 221.422119,312.705688 212.107605,308.157166 
	C212.296432,307.469604 212.539719,307.254639 212.796631,307.055084 
	C213.041092,307.111816 213.285538,307.168579 213.922760,307.566406 
	C214.559464,308.080322 214.829666,308.181305 215.126114,308.210480 
	C215.292755,308.279755 215.459381,308.349060 215.767670,308.861908 
	C216.195267,309.543915 216.481247,309.782440 216.767212,310.020935 
	C224.349045,312.692841 231.818008,315.761841 239.535797,317.955353 
	C256.484406,322.772430 273.402771,321.886810 290.150391,316.591553 
	C291.005585,316.321167 291.996246,316.479340 292.972046,317.058868 
	C292.334686,318.280731 291.649170,318.881744 290.659485,319.524139 
	C289.265015,320.061127 288.174774,320.556732 286.714905,321.037354 
	C285.230133,321.383881 284.114929,321.745361 282.551819,322.094543 
	C271.410034,322.444336 260.716217,322.806427 250.022400,323.168488 
z"/>
<path fill="#83DEE8" opacity="1.000000" stroke="none" 
	d="
M275.934235,246.702972 
	C267.984253,246.478058 260.034943,246.224243 252.083984,246.041626 
	C248.616287,245.961960 245.145233,246.028229 241.672943,244.999710 
	C261.442535,244.999710 281.212158,244.999710 301.436035,244.963470 
	C313.470490,245.324814 321.721649,252.312897 324.024567,263.796417 
	C324.439575,265.865967 324.464142,268.013855 324.398529,270.215454 
	C322.976501,266.943268 321.824921,263.581238 320.379089,259.604370 
	C315.579590,250.770340 308.328949,247.285416 299.272400,247.062714 
	C291.494781,246.871429 283.713745,246.817581 275.934235,246.702972 
z"/>
<path fill="#0670E6" opacity="1.000000" stroke="none" 
	d="
M122.957367,308.071106 
	C125.113983,312.240631 127.270607,316.410156 129.828583,321.124451 
	C136.464966,330.122894 142.699966,338.576569 149.093094,347.335388 
	C150.945007,350.309143 152.638794,352.977753 154.256683,355.727112 
	C154.180786,355.807892 154.029037,355.969452 154.029037,355.969452 
	C150.263596,352.640381 145.778046,349.838745 142.876389,345.877014 
	C135.952698,336.423889 129.641891,326.508270 123.380516,316.591919 
	C121.518997,313.643768 120.643951,310.072693 119.549088,306.473297 
	C120.839951,306.796722 121.898659,307.433899 122.957367,308.071106 
z"/>
<path fill="#2184F8" opacity="1.000000" stroke="none" 
	d="
M294.901337,316.134186 
	C295.748810,315.656006 296.596283,315.177856 298.019653,314.754578 
	C300.063385,314.823975 301.531250,314.838440 303.146912,315.189087 
	C304.838196,318.983002 306.381653,322.440704 307.925140,325.898407 
	C303.382538,329.548126 298.839935,333.197876 293.701294,336.802124 
	C293.788666,335.463928 294.472137,334.171234 295.436523,332.717590 
	C296.303070,330.803558 297.537109,328.974701 297.342957,327.312683 
	C296.902557,323.542908 295.759003,319.855225 294.901337,316.134186 
z"/>
<path fill="#4A3FFB" opacity="1.000000" stroke="none" 
	d="
M295.155579,332.878540 
	C294.472137,334.171234 293.788666,335.463928 293.335022,336.868469 
	C287.802948,339.596558 282.127014,342.432007 276.243225,344.737061 
	C273.271149,345.901398 269.922943,346.105713 266.330566,346.491119 
	C265.916351,346.238159 265.803436,345.924103 265.803436,345.924072 
	C267.346252,345.426453 268.889099,344.928833 271.062134,344.145935 
	C274.783936,342.894684 277.875519,341.928650 281.275421,340.909912 
	C282.060455,340.243317 282.537170,339.629425 283.006958,339.007751 
	C283.000000,339.000000 283.015778,339.014343 283.379059,338.954834 
	C285.651733,337.640076 289.200439,336.357452 289.179962,335.134460 
	C289.101288,330.430054 287.879822,325.744751 287.084534,321.052338 
	C288.174774,320.556732 289.265015,320.061127 290.710785,319.840424 
	C292.429382,324.369720 293.792480,328.624146 295.155579,332.878540 
z"/>
<path fill="#02A9F3" opacity="1.000000" stroke="none" 
	d="
M204.358734,387.063354 
	C207.458038,387.635986 210.875198,388.407196 214.315765,389.053833 
	C216.557922,389.475220 218.834106,389.715546 221.748901,390.350464 
	C222.945709,391.030243 223.469101,391.681885 224.034515,391.720673 
	C235.600342,392.514282 247.193588,394.029114 258.732727,393.699097 
	C266.515106,393.476471 274.222443,390.631042 282.030701,389.033661 
	C282.098083,389.108429 282.232117,389.258667 282.232117,389.258667 
	C278.346832,390.681274 274.568359,392.783447 270.558563,393.413635 
	C248.433136,396.891083 226.660950,395.291473 205.431244,387.849213 
	C205.143555,387.748322 204.933044,387.427277 204.358734,387.063354 
z"/>
<path fill="#2184F8" opacity="1.000000" stroke="none" 
	d="
M207.442047,360.352051 
	C207.383881,359.628540 207.571960,359.115753 207.861023,358.348846 
	C218.458084,360.528595 228.954163,362.962494 239.647095,365.975006 
	C239.799118,366.956665 239.754257,367.359711 239.709412,367.762756 
	C234.212402,367.112091 228.714752,366.466858 223.218689,365.808289 
	C220.794937,365.517853 218.374390,365.200439 215.526581,364.885437 
	C212.629959,363.437958 210.159134,362.000366 207.442047,360.352051 
z"/>
<path fill="#02A9F3" opacity="1.000000" stroke="none" 
	d="
M308.204224,325.725525 
	C306.381653,322.440704 304.838196,318.983002 303.392578,314.964600 
	C304.322968,313.908844 305.151001,313.406097 305.988708,312.920013 
	C310.873199,310.085510 311.443237,310.275726 313.787048,315.416077 
	C314.051025,315.994995 314.462830,316.506470 314.806091,317.049225 
	C312.698486,319.883667 310.590881,322.718140 308.204224,325.725525 
z"/>
<path fill="#EFABD8" opacity="1.000000" stroke="none" 
	d="
M155.287323,188.016846 
	C154.554489,187.431732 153.521851,186.651810 153.337967,185.706772 
	C151.485397,176.185242 141.129684,171.600510 133.819931,176.809982 
	C133.198990,177.252533 132.256729,177.244278 131.204788,177.289246 
	C135.113220,172.192001 140.651764,170.628510 146.355530,172.782990 
	C152.448547,175.084503 155.535385,180.201599 155.287323,188.016846 
z"/>
<path fill="#83DEE8" opacity="1.000000" stroke="none" 
	d="
M265.083466,366.040588 
	C272.289673,364.627502 279.248566,363.600983 284.406281,370.939362 
	C288.571960,376.866302 287.006470,382.263184 283.592957,387.817993 
	C283.309052,387.856262 283.063263,387.762451 283.120178,387.369843 
	C285.269043,375.680817 283.770203,371.738953 275.636932,367.635254 
	C272.900055,367.009705 270.412750,363.966614 267.650330,367.531219 
	C266.898010,367.579681 266.465393,367.566956 265.902222,367.371979 
	C265.542267,366.806671 265.312866,366.423615 265.083466,366.040588 
z"/>
<path fill="#83DEE8" opacity="1.000000" stroke="none" 
	d="
M224.928131,174.526382 
	C224.451553,172.300339 224.038162,169.609772 223.431091,166.636902 
	C222.675247,157.088028 218.265244,150.575516 209.217590,146.809174 
	C208.926239,146.444504 208.936966,146.022064 208.936966,146.022064 
	C217.964996,145.701477 224.590637,152.313797 224.992188,162.217163 
	C225.152008,166.158905 225.000870,170.113266 224.928131,174.526382 
z"/>
<path fill="#66C2ED" opacity="1.000000" stroke="none" 
	d="
M315.055573,316.764130 
	C314.462830,316.506470 314.051025,315.994995 313.787048,315.416077 
	C311.443237,310.275726 310.873199,310.085510 305.988708,312.920013 
	C305.151001,313.406097 304.322968,313.908844 303.244751,314.628387 
	C301.531250,314.838440 300.063385,314.823975 298.279724,314.623047 
	C301.459381,312.671631 304.828766,310.561371 308.481720,309.227661 
	C313.227509,307.494995 316.221497,310.861694 315.055573,316.764130 
z"/>
<path fill="#2359FB" opacity="1.000000" stroke="none" 
	d="
M295.436523,332.717590 
	C293.792480,328.624146 292.429382,324.369720 291.014954,319.799042 
	C291.649170,318.881744 292.334686,318.280731 293.196259,317.388977 
	C293.724060,316.774841 294.075806,316.451508 294.664429,316.131195 
	C295.759003,319.855225 296.902557,323.542908 297.342957,327.312683 
	C297.537109,328.974701 296.303070,330.803558 295.436523,332.717590 
z"/>
<path fill="#66C2ED" opacity="1.000000" stroke="none" 
	d="
M264.650146,366.052368 
	C265.312866,366.423615 265.542267,366.806671 265.499939,367.523895 
	C256.863373,368.170044 248.498520,368.481995 240.133667,368.793945 
	C240.081970,368.615265 240.030273,368.436615 239.843994,368.010345 
	C239.754257,367.359711 239.799118,366.956665 239.924042,366.258850 
	C248.075027,365.997437 256.145935,366.030792 264.650146,366.052368 
z"/>
<path fill="#0670E6" opacity="1.000000" stroke="none" 
	d="
M179.879700,374.070953 
	C180.165848,374.538940 180.451996,375.006927 180.872665,375.714111 
	C177.916611,374.313507 174.664856,372.914001 171.774750,370.975342 
	C167.840500,368.336273 164.182343,365.285645 160.293594,362.068390 
	C160.181381,361.725281 160.210709,361.674835 160.539886,361.754456 
	C162.905121,362.890503 164.941208,363.946960 167.265320,365.176605 
	C171.662125,368.256836 175.770905,371.163910 179.879700,374.070953 
z"/>
<path fill="#2359FB" opacity="1.000000" stroke="none" 
	d="
M122.919296,307.694519 
	C121.898659,307.433899 120.839951,306.796722 119.476357,306.111267 
	C118.802788,305.212860 118.434113,304.362732 118.026077,303.157288 
	C116.817284,297.859100 115.618912,292.922760 114.499466,287.968597 
	C114.231514,286.782776 114.226418,285.537537 114.731804,284.206116 
	C117.448280,291.910065 120.164749,299.613983 122.919296,307.694519 
z"/>
<path fill="#7238FA" opacity="1.000000" stroke="none" 
	d="
M212.636200,306.772125 
	C212.539719,307.254639 212.296432,307.469604 211.895828,307.878845 
	C207.149155,304.282135 202.573441,300.506622 197.985229,296.365448 
	C202.807083,299.496277 207.641418,302.992706 212.636200,306.772125 
z"/>
<path fill="#66C2ED" opacity="1.000000" stroke="none" 
	d="
M208.695969,145.777405 
	C208.936966,146.022064 208.926239,146.444504 208.895844,146.652649 
	C204.611191,147.130844 200.356918,147.400894 195.976273,147.399872 
	C198.109283,146.725540 200.381973,146.381638 202.619446,145.880493 
	C203.238861,145.741745 203.924713,145.253220 204.288071,144.724487 
	C206.357635,141.713150 207.464172,143.230209 208.695969,145.777405 
z"/>
<path fill="#0290F3" opacity="1.000000" stroke="none" 
	d="
M183.156738,182.497833 
	C183.496811,182.514496 183.771744,182.991577 184.059875,184.206024 
	C184.100998,189.276306 184.128891,193.609207 184.156769,197.942093 
	C184.122452,201.966278 184.088135,205.990479 184.072815,210.471100 
	C184.091812,210.927551 183.731110,210.991653 183.548386,211.004364 
	C183.274292,201.664124 183.182922,192.311188 183.156738,182.497833 
z"/>
<path fill="#E6B047" opacity="1.000000" stroke="none" 
	d="
M338.723389,365.391846 
	C340.367767,363.694336 342.316956,361.847839 344.626831,359.979919 
	C343.001068,361.719910 341.014648,363.481384 338.723389,365.391846 
z"/>
<path fill="#E6B047" opacity="1.000000" stroke="none" 
	d="
M334.236633,368.830780 
	C335.190552,367.704834 336.460785,366.513794 338.085266,365.424927 
	C337.143982,366.606598 335.848450,367.686127 334.236633,368.830780 
z"/>
<path fill="#E6B047" opacity="1.000000" stroke="none" 
	d="
M329.339600,372.113831 
	C330.450104,371.094086 331.839172,370.024750 333.559509,368.933167 
	C332.466583,369.962036 331.042389,371.013123 329.339600,372.113831 
z"/>
<path fill="#9364F6" opacity="1.000000" stroke="none" 
	d="
M147.194550,204.760498 
	C144.947586,202.803101 145.513504,201.565018 148.544739,201.016327 
	C148.826263,201.203766 148.795197,201.406677 148.461243,202.038132 
	C148.075974,202.891464 147.993607,203.316254 147.911224,203.741058 
	C147.747406,204.038193 147.583603,204.335342 147.194550,204.760498 
z"/>
<path fill="#E6B047" opacity="1.000000" stroke="none" 
	d="
M349.261597,355.979004 
	C349.000092,355.351410 349.033691,354.601776 349.363708,353.331055 
	C350.446381,352.546387 351.232635,352.282837 352.018860,352.019287 
	C352.018860,352.019287 352.312134,352.356232 352.451538,352.530762 
	C351.579529,353.755829 350.568115,354.806396 349.261597,355.979004 
z"/>
<path fill="#0670E6" opacity="1.000000" stroke="none" 
	d="
M159.085114,360.925537 
	C158.071152,360.229034 157.057175,359.532532 156.009903,358.435791 
	C155.976593,358.035553 156.225754,357.787170 156.520538,357.903198 
	C157.633865,358.943939 158.452408,359.868622 159.224792,360.826782 
	C159.178635,360.860291 159.085114,360.925537 159.085114,360.925537 
z"/>
<path fill="#0670E6" opacity="1.000000" stroke="none" 
	d="
M317.495300,280.801331 
	C317.938141,280.267181 318.665771,279.773438 319.650787,279.211792 
	C319.198822,279.709869 318.489471,280.275818 317.495300,280.801331 
z"/>
<path fill="#E6B047" opacity="1.000000" stroke="none" 
	d="
M345.255157,359.903198 
	C345.447937,359.361206 345.935760,358.735962 346.736267,358.050171 
	C346.549377,358.599762 346.049805,359.209869 345.255157,359.903198 
z"/>
<path fill="#0670E6" opacity="1.000000" stroke="none" 
	d="
M155.853516,358.161255 
	C155.206512,357.715302 154.682617,357.143677 154.093872,356.270752 
	C154.029037,355.969452 154.180786,355.807892 154.529312,355.812134 
	C155.257141,355.870087 155.636429,355.923859 156.031281,356.282257 
	C156.106476,356.986969 156.166122,357.387085 156.225754,357.787170 
	C156.225754,357.787170 155.976593,358.035553 155.853516,358.161255 
z"/>
<path fill="#E12E76" opacity="1.000000" stroke="none" 
	d="
M285.378662,138.137421 
	C285.842499,137.981186 286.293549,138.015381 286.814453,138.216446 
	C286.378204,138.364822 285.872040,138.346344 285.378662,138.137421 
z"/>
<path fill="#E12E76" opacity="1.000000" stroke="none" 
	d="
M282.716492,137.109482 
	C282.986633,136.945282 283.297302,136.976547 283.684937,137.155670 
	C283.426910,137.304016 283.092010,137.304489 282.716492,137.109482 
z"/>
<path fill="#7238FA" opacity="1.000000" stroke="none" 
	d="
M215.139954,308.028076 
	C214.829666,308.181305 214.559464,308.080322 214.218109,307.799805 
	C214.465088,307.743317 214.809433,307.794464 215.139954,308.028076 
z"/>
<path fill="#7238FA" opacity="1.000000" stroke="none" 
	d="
M216.654785,309.865448 
	C216.481247,309.782440 216.195267,309.543915 215.854996,309.118164 
	C216.047913,309.190552 216.295135,309.450256 216.654785,309.865448 
z"/>
<path fill="#8351F9" opacity="1.000000" stroke="none" 
	d="
M148.120789,203.625336 
	C147.993607,203.316254 148.075974,202.891464 148.287582,202.292419 
	C148.388000,202.582001 148.359177,203.045792 148.120789,203.625336 
z"/>
<path fill="#02A9F3" opacity="1.000000" stroke="none" 
	d="
M283.063263,387.762451 
	C283.063263,387.762451 283.309052,387.856262 283.356232,387.977600 
	C283.261169,388.345703 283.118896,388.592468 282.604370,389.048950 
	C282.232117,389.258667 282.098083,389.108429 282.201752,388.825012 
	C282.558044,388.281860 282.810638,388.022156 283.063263,387.762451 
z"/>
<path fill="#5A19EA" opacity="1.000000" stroke="none" 
	d="
M265.659485,346.008423 
	C265.803436,345.924103 265.916351,346.238159 265.920441,346.404907 
	C265.924530,346.571686 265.495819,346.714661 265.280640,346.647095 
	C265.171997,346.377014 265.322021,346.214752 265.659485,346.008423 
z"/>
<path fill="#03C7F8" opacity="1.000000" stroke="none" 
	d="
M185.661789,155.783142 
	C185.782593,155.955521 185.679138,156.270630 185.390900,156.752258 
	C185.283264,156.587799 185.360413,156.256851 185.661789,155.783142 
z"/>
<path fill="#5A19EA" opacity="1.000000" stroke="none" 
	d="
M263.169647,347.077515 
	C263.194305,346.953674 263.349152,346.899933 263.429138,346.914368 
	C263.509094,346.928833 263.479156,347.232819 263.479156,347.232819 
	C263.479156,347.232819 263.144989,347.201324 263.169647,347.077515 
z"/>
<path fill="#AD2EE3" opacity="1.000000" stroke="none" 
	d="
M271.772217,134.097687 
	C271.811279,134.162918 271.664001,134.100098 271.650452,134.064224 
	C271.636871,134.028351 271.733154,134.032440 271.772217,134.097687 
z"/>
<path fill="#0670E6" opacity="1.000000" stroke="none" 
	d="
M160.169495,361.751953 
	C159.802246,361.786224 159.516510,361.648926 159.192749,361.146118 
	C159.085114,360.925537 159.178635,360.860291 159.395721,360.957947 
	C159.836197,361.238770 160.035492,361.445160 160.210709,361.674835 
	C160.210709,361.674835 160.181381,361.725281 160.169495,361.751953 
z"/>
<path fill="#E6B047" opacity="1.000000" stroke="none" 
	d="
M347.246033,357.968628 
	C347.194427,357.772797 347.409790,357.495636 347.859772,357.091125 
	C347.900604,357.271606 347.706818,357.579437 347.246033,357.968628 
z"/>
<path fill="#04BAF8" opacity="1.000000" stroke="none" 
	d="
M184.482697,198.029053 
	C184.128891,193.609207 184.100998,189.276306 184.110275,184.483124 
	C194.484161,189.573639 202.126862,198.352295 210.615250,206.117355 
	C211.226028,206.676086 211.721924,207.597443 212.422653,207.785263 
	C222.937698,210.603638 222.685486,218.714905 222.017395,227.061432 
	C221.964691,227.719818 222.010574,228.386078 222.009766,229.514069 
	C218.324722,227.101547 214.517548,224.366074 210.984177,221.313644 
	C205.135193,216.260803 199.478424,210.986053 193.709106,205.840195 
	C190.777802,203.225662 187.777664,200.688278 184.482697,198.029053 
z"/>
<path fill="#04BAF8" opacity="1.000000" stroke="none" 
	d="
M243.964996,247.510742 
	C245.999466,247.116165 248.071976,247.073715 250.586456,247.080627 
	C256.190521,250.230789 261.319641,253.388458 266.528198,256.409149 
	C269.250336,257.987854 271.962952,259.995422 274.936371,260.657562 
	C288.509949,263.680145 302.199432,266.181274 315.779175,269.178223 
	C317.806030,269.625519 322.396057,268.094666 321.005737,273.664001 
	C312.945465,273.168762 304.914001,272.618195 296.985779,271.397095 
	C290.456604,270.391479 284.009583,268.745605 277.605408,267.079010 
	C274.287323,266.215454 270.993744,264.977356 267.947235,263.407471 
	C261.074005,259.865570 254.295288,256.124237 247.633102,252.200882 
	C246.102402,251.299454 245.196503,249.337021 243.964996,247.510742 
z"/>
<path fill="#2359FB" opacity="1.000000" stroke="none" 
	d="
M148.934967,347.030273 
	C142.699966,338.576569 136.464966,330.122894 130.074265,321.361481 
	C139.658829,322.935211 143.344727,316.843170 147.181015,304.959839 
	C149.710236,308.475922 152.016113,312.508179 154.644104,316.318237 
	C157.937515,321.093079 161.495270,325.685577 164.731445,330.839539 
	C163.370331,333.110504 161.772812,334.756378 161.145569,336.713196 
	C159.193268,342.803894 154.122330,344.924591 148.934967,347.030273 
z"/>
<path fill="#7238FA" opacity="1.000000" stroke="none" 
	d="
M280.967133,340.962646 
	C277.875519,341.928650 274.783936,342.894684 271.319427,343.910461 
	C270.324188,342.802521 269.435760,341.712311 269.122345,340.476288 
	C266.977173,332.017700 260.716095,327.834351 253.222137,324.862091 
	C252.306046,324.498718 251.430283,324.033630 250.279114,323.392090 
	C260.716217,322.806427 271.410034,322.444336 282.558838,322.508301 
	C283.014496,328.294373 283.015137,333.654358 283.015778,339.014343 
	C283.015778,339.014343 283.000000,339.000000 282.703522,339.070190 
	C281.927063,339.747833 281.447113,340.355225 280.967133,340.962646 
z"/>
<path fill="#7347FA" opacity="1.000000" stroke="none" 
	d="
M120.113831,198.270874 
	C121.278526,197.006210 122.359726,196.139450 123.699913,195.114532 
	C127.797356,195.353683 131.635666,195.752365 135.474289,196.147919 
	C140.468033,196.662537 144.448700,202.789520 142.938324,207.676498 
	C141.820724,211.292526 140.661530,214.895691 138.928360,218.667572 
	C133.236343,210.986649 125.519226,209.519363 116.976776,210.062622 
	C117.994629,206.264679 119.012482,202.466736 120.113831,198.270874 
z"/>
<path fill="#6341FA" opacity="1.000000" stroke="none" 
	d="
M116.952789,210.444565 
	C125.519226,209.519363 133.236343,210.986649 138.666138,218.916565 
	C138.988174,219.444427 138.979950,219.886276 138.778198,220.798004 
	C138.345886,221.477783 138.154968,221.724731 138.011948,222.008713 
	C137.507523,225.477051 137.003098,228.945389 136.258057,232.708176 
	C133.807602,227.391663 127.839294,223.745758 121.169846,223.932526 
	C117.781990,224.027420 114.646713,220.114960 115.357010,216.515533 
	C115.736832,214.590759 116.395798,212.721054 116.952789,210.444565 
z"/>
<path fill="#FC9D15" opacity="1.000000" stroke="none" 
	d="
M356.948944,298.933624 
	C358.805969,292.156738 360.662994,285.379852 362.771973,278.314484 
	C373.854462,279.347565 379.741302,271.735443 385.822906,264.960297 
	C388.270844,262.233215 390.825867,258.830231 387.337952,254.430298 
	C386.290009,253.108368 387.508636,249.989700 388.221069,247.332855 
	C389.502533,246.938446 390.251831,246.905350 391.001129,246.872253 
	C391.618652,258.753540 390.876068,270.521667 387.829651,282.698303 
	C387.410278,283.582184 387.229095,283.885681 387.047913,284.189178 
	C387.047913,284.189178 387.088837,284.563995 386.734497,284.828613 
	C381.337708,289.589478 375.931763,293.746918 371.344849,298.667816 
	C365.613464,304.816559 362.555969,305.170013 356.948944,298.933624 
z"/>
<path fill="#FD7C2E" opacity="1.000000" stroke="none" 
	d="
M377.713715,187.917587 
	C378.087097,188.720917 378.460480,189.524261 378.675110,190.964462 
	C378.686768,201.405426 378.857208,211.209534 379.027649,221.013641 
	C377.011444,226.086578 376.081757,231.680298 370.112274,234.412918 
	C368.352448,235.218491 367.678894,238.397003 366.273499,240.748657 
	C365.227356,234.485565 364.415222,227.961853 363.593109,221.357849 
	C366.674255,218.419510 370.398926,215.632233 373.025513,212.041687 
	C374.349640,210.231644 374.141449,206.906799 373.818268,204.369812 
	C373.197876,199.499390 372.001617,194.702332 371.047882,189.106873 
	C372.953369,183.156891 375.497864,188.135300 377.713715,187.917587 
z"/>
<path fill="#FB9131" opacity="1.000000" stroke="none" 
	d="
M379.371521,221.075012 
	C378.857208,211.209534 378.686768,201.405426 378.704041,191.305511 
	C381.882812,199.111862 384.873871,207.214035 387.964172,215.841187 
	C388.130157,216.566498 388.239014,216.740417 388.390076,216.887909 
	C388.514954,217.421326 388.639862,217.954742 388.839722,218.896667 
	C389.614990,228.192429 390.315308,237.079681 391.008392,246.419601 
	C390.251831,246.905350 389.502533,246.938446 388.378235,246.964996 
	C386.958740,240.813263 386.289886,234.568588 384.700562,228.567734 
	C383.978577,225.841736 381.433502,223.598587 379.371521,221.075012 
z"/>
<path fill="#F26A38" opacity="1.000000" stroke="none" 
	d="
M362.900696,274.786926 
	C362.748474,274.881409 362.524689,274.771912 362.273224,274.434418 
	C362.469727,274.298462 362.664276,274.423981 362.900696,274.786926 
z"/>
<path fill="#681FF6" opacity="1.000000" stroke="none" 
	d="
M221.960754,338.437988 
	C221.845337,338.145721 221.911957,337.857574 221.978577,337.569397 
	C222.033325,337.860291 222.088058,338.151154 221.960754,338.437988 
z"/>
<path fill="#0184F6" opacity="1.000000" stroke="none" 
	d="
M187.416870,257.015076 
	C182.768082,252.572342 185.993103,247.489395 185.105133,242.761154 
	C185.512299,242.425034 185.919464,242.088928 186.326645,241.752808 
	C191.653809,245.137054 196.902954,248.652618 202.326340,251.874908 
	C210.554214,256.763458 219.046051,261.220032 227.152451,266.296539 
	C232.959885,269.933380 238.320145,274.284271 243.947571,278.655884 
	C233.875153,281.328674 226.372238,275.376556 218.334793,270.936127 
	C210.492950,266.603699 202.570480,262.405914 194.552841,258.411102 
	C192.573212,257.424713 190.087067,257.455017 187.416870,257.015076 
z"/>
<path fill="#FDAF13" opacity="1.000000" stroke="none" 
	d="
M356.719666,299.197662 
	C362.555969,305.170013 365.613464,304.816559 371.344849,298.667816 
	C375.931763,293.746918 381.337708,289.589478 386.727814,285.017029 
	C384.787384,292.520599 383.244629,300.435547 380.024536,307.596191 
	C375.902618,316.762177 370.782166,325.542450 365.419769,334.066040 
	C361.571075,340.183594 356.620697,345.608063 352.090332,351.680511 
	C351.232635,352.282837 350.446381,352.546387 349.384277,352.957184 
	C348.718384,352.799896 348.044617,352.545288 347.980927,352.183380 
	C347.031342,346.783630 345.092041,341.271301 345.577820,335.987000 
	C346.055908,330.787170 343.884949,330.849609 340.416565,331.000793 
	C339.589722,331.036865 338.760529,331.018646 337.489624,331.041534 
	C345.162598,321.531555 351.609161,310.978271 356.719666,299.197662 
z"/>
<path fill="#02D7FB" opacity="1.000000" stroke="none" 
	d="
M222.933350,188.037109 
	C222.967529,191.080200 223.001694,194.123306 222.979782,197.626648 
	C217.057632,197.562485 213.599411,194.319855 209.852615,189.658005 
	C205.612473,184.382309 199.258301,180.378159 193.111877,177.194885 
	C188.025009,174.560349 183.232193,166.817093 185.149826,160.216080 
	C187.012070,158.885391 188.673508,157.394897 190.494781,157.163757 
	C194.761078,156.622314 198.545944,156.437469 200.818970,162.038300 
	C203.062500,167.566467 206.613129,172.964859 214.023010,173.422897 
	C215.232224,173.497650 216.278183,175.626450 217.469025,176.731018 
	C219.010757,178.161026 220.622192,179.515869 222.536957,180.987030 
	C222.915131,182.431702 222.959976,183.792419 222.798401,185.742157 
	C222.705795,186.899811 222.819580,187.468460 222.933350,188.037109 
z"/>
<path fill="#FA3FBE" opacity="1.000000" stroke="none" 
	d="
M316.065125,151.170853 
	C307.564911,146.843536 299.064667,142.516220 290.256500,137.977448 
	C288.090363,128.711319 284.931152,120.281570 278.168243,113.633194 
	C276.659729,112.150215 274.984253,110.837051 273.253601,109.126648 
	C283.873077,111.829102 294.624603,114.850601 305.804749,118.365753 
	C307.400604,119.261177 308.567810,119.662949 309.735046,120.064720 
	C309.969604,120.115028 310.204163,120.165329 310.892578,120.422531 
	C311.505402,120.780495 311.679596,120.911156 311.869080,121.021423 
	C311.869080,121.021423 311.933960,121.055916 312.026001,121.418930 
	C314.489960,124.988426 320.071838,127.769348 312.936096,132.050873 
	C314.904785,134.200653 316.654968,135.941147 318.205231,137.844498 
	C320.571289,140.749420 322.377808,143.550034 317.755157,146.386749 
	C316.635040,147.074127 316.599426,149.528824 316.065125,151.170853 
z"/>
<path fill="#D638E4" opacity="1.000000" stroke="none" 
	d="
M261.926819,128.656281 
	C255.972015,128.961090 250.008713,129.227448 244.142105,128.595688 
	C240.548111,128.208649 238.758163,126.274002 239.848495,121.558334 
	C240.732285,117.735931 238.955795,113.298439 238.307144,108.770271 
	C240.053787,108.312904 241.742264,107.870766 243.727875,107.191483 
	C248.377365,106.907616 252.729706,106.860909 257.543823,106.875755 
	C259.330536,109.594131 261.397644,112.141571 261.809021,114.933022 
	C262.449768,119.281273 261.966248,123.795212 261.926819,128.656281 
z"/>
<path fill="#D638E4" opacity="1.000000" stroke="none" 
	d="
M262.842468,129.809769 
	C262.673126,129.887192 262.420868,129.708923 262.093414,129.269119 
	C262.267273,129.189606 262.514404,129.371780 262.842468,129.809769 
z"/>
<path fill="#03C7F8" opacity="1.000000" stroke="none" 
	d="
M283.120178,387.369843 
	C282.810638,388.022156 282.558044,388.281860 282.134399,388.750244 
	C274.222443,390.631042 266.515106,393.476471 258.732727,393.699097 
	C247.193588,394.029114 235.600342,392.514282 224.034515,391.720673 
	C223.469101,391.681885 222.945709,391.030243 222.174683,390.353882 
	C226.242462,384.804108 230.505554,379.537018 234.852341,374.339966 
	C236.328171,372.575439 238.015152,370.987518 239.869659,369.056396 
	C248.498520,368.481995 256.863373,368.170044 265.630493,367.706177 
	C266.465393,367.566956 266.898010,367.579681 268.075317,367.671997 
	C271.181488,367.784698 273.542969,367.817719 275.904449,367.850739 
	C283.770203,371.738953 285.269043,375.680817 283.120178,387.369843 
z"/>
<path fill="#FB5897" opacity="1.000000" stroke="none" 
	d="
M316.292725,151.387756 
	C316.599426,149.528824 316.635040,147.074127 317.755157,146.386749 
	C322.377808,143.550034 320.571289,140.749420 318.205231,137.844498 
	C316.654968,135.941147 314.904785,134.200653 312.936096,132.050873 
	C320.071838,127.769348 314.489960,124.988426 312.033295,121.454926 
	C320.387634,126.220818 328.981781,131.078690 337.202759,136.502243 
	C341.546417,139.367859 345.240082,143.218765 349.486755,146.790680 
	C350.660248,148.120010 351.574219,149.283493 352.230377,150.697739 
	C349.999908,151.052414 346.721710,150.545425 346.327454,151.387985 
	C345.517029,153.119812 346.197266,155.578094 346.374695,157.728271 
	C346.440582,158.526489 346.816803,159.299088 347.051514,160.083374 
	C345.634521,160.079086 344.217468,160.074829 342.375092,160.114685 
	C339.349854,161.193329 336.781982,162.322128 334.135529,163.219284 
	C332.956055,163.619141 331.127228,164.161270 330.431854,163.599899 
	C325.670166,159.755737 321.131134,155.635757 316.292725,151.387756 
z"/>
<path fill="#FC7663" opacity="1.000000" stroke="none" 
	d="
M347.195435,160.396744 
	C346.816803,159.299088 346.440582,158.526489 346.374695,157.728271 
	C346.197266,155.578094 345.517029,153.119812 346.327454,151.387985 
	C346.721710,150.545425 349.999908,151.052414 352.326355,150.994232 
	C359.714966,160.613983 366.813599,170.142166 373.737366,179.795792 
	C375.364166,182.063995 376.400269,184.755844 377.710907,187.585205 
	C375.497864,188.135300 372.953369,183.156891 371.026184,188.706299 
	C368.566620,188.417450 366.132355,187.761230 363.326355,187.039398 
	C360.952271,180.415588 358.752808,174.245911 352.545898,169.939102 
	C349.933563,168.126434 349.023315,163.860718 347.195435,160.396744 
z"/>
<path fill="#E12E76" opacity="1.000000" stroke="none" 
	d="
M340.021606,172.990021 
	C340.038849,172.976303 340.321686,173.199677 340.321686,173.199677 
	C340.321686,173.199677 340.079529,173.199051 340.028259,173.118668 
	C339.976990,173.038284 340.004395,173.003754 340.021606,172.990021 
z"/>
<path fill="#2184F8" opacity="1.000000" stroke="none" 
	d="
M149.093094,347.335388 
	C154.122330,344.924591 159.193268,342.803894 161.145569,336.713196 
	C161.772812,334.756378 163.370331,333.110504 164.845306,331.166046 
	C174.987350,338.806488 184.808014,346.603241 194.843506,354.656128 
	C194.373489,355.720184 193.688644,356.528137 192.540939,357.668884 
	C188.381516,357.672852 184.684952,357.344025 180.989655,356.624573 
	C180.588364,351.758545 179.341461,349.332916 173.644501,349.705170 
	C167.541611,350.103912 164.289398,353.355957 161.615875,357.360748 
	C159.455017,356.827057 157.735382,356.402344 156.015732,355.977631 
	C155.636429,355.923859 155.257141,355.870087 154.605194,355.731354 
	C152.638794,352.977753 150.945007,350.309143 149.093094,347.335388 
z"/>
<path fill="#0290F3" opacity="1.000000" stroke="none" 
	d="
M180.988388,357.015198 
	C184.684952,357.344025 188.381516,357.672852 192.515732,358.017944 
	C192.998230,365.975983 191.957458,367.475311 184.721756,370.622345 
	C183.128952,371.315125 181.752930,372.506317 180.078384,373.769470 
	C175.770905,371.163910 171.662125,368.256836 167.522705,364.956665 
	C173.600098,364.924713 176.894333,360.254913 180.988388,357.015198 
z"/>
<path fill="#2184F8" opacity="1.000000" stroke="none" 
	d="
M195.223801,355.147949 
	C195.584259,355.109680 196.128494,355.304871 196.864868,355.722107 
	C196.507202,355.756561 195.957382,355.569000 195.223801,355.147949 
z"/>
<path fill="#2184F8" opacity="1.000000" stroke="none" 
	d="
M198.198669,356.259674 
	C198.365921,356.148743 198.629044,356.294067 198.986542,356.698914 
	C198.820389,356.806549 198.558273,356.659058 198.198669,356.259674 
z"/>
<path fill="#7347FA" opacity="1.000000" stroke="none" 
	d="
M138.206955,221.875366 
	C138.154968,221.724731 138.345886,221.477783 138.774414,221.129456 
	C138.833435,221.283813 138.646057,221.534134 138.206955,221.875366 
z"/>
<path fill="#9364F6" opacity="1.000000" stroke="none" 
	d="
M149.974030,198.098572 
	C149.945160,198.117950 149.716843,198.356339 149.716843,198.356339 
	C149.716843,198.356339 149.774536,198.142075 149.855057,198.104492 
	C149.935577,198.066895 150.002914,198.079208 149.974030,198.098572 
z"/>
<path fill="#05D4EC" opacity="1.000000" stroke="none" 
	d="
M275.503967,246.792419 
	C283.713745,246.817581 291.494781,246.871429 299.272400,247.062714 
	C308.328949,247.285416 315.579590,250.770340 320.145691,259.313538 
	C318.159271,260.655121 316.090607,262.553467 314.069305,262.504333 
	C310.041290,262.406372 306.017914,261.339020 302.030945,260.491821 
	C293.510162,258.681213 284.910248,257.114319 276.557922,254.702423 
	C273.179108,253.726715 268.393127,253.213120 267.968658,247.543182 
	C270.324219,247.075928 272.698944,246.978882 275.503967,246.792419 
z"/>
<path fill="#FB5897" opacity="1.000000" stroke="none" 
	d="
M309.578339,119.802711 
	C308.567810,119.662949 307.400604,119.261177 306.114197,118.566505 
	C307.137207,118.695976 308.279419,119.118340 309.578339,119.802711 
z"/>
<path fill="#FB5897" opacity="1.000000" stroke="none" 
	d="
M311.799927,120.860306 
	C311.679596,120.911156 311.505402,120.780495 311.242004,120.508507 
	C311.391113,120.385109 311.588837,120.488983 311.799927,120.860306 
z"/>
<path fill="#FDAF13" opacity="1.000000" stroke="none" 
	d="
M387.251617,284.015686 
	C387.229095,283.885681 387.410278,283.582184 387.793030,283.103943 
	C387.814850,283.233521 387.635101,283.537842 387.251617,284.015686 
z"/>
<path fill="#07E5FA" opacity="1.000000" stroke="none" 
	d="
M222.977936,187.693329 
	C222.819580,187.468460 222.705795,186.899811 222.755859,186.150574 
	C222.953979,186.429855 222.988251,186.889694 222.977936,187.693329 
z"/>
<path fill="#E6B047" opacity="1.000000" stroke="none" 
	d="
M388.413635,216.721588 
	C388.239014,216.740417 388.130157,216.566498 388.030060,216.211960 
	C388.216003,216.159622 388.362854,216.325455 388.413635,216.721588 
z"/>
<path fill="#6341FA" opacity="1.000000" stroke="none" 
	d="
M283.379059,338.954834 
	C283.015137,333.654358 283.014496,328.294373 283.006775,322.520630 
	C284.114929,321.745361 285.230133,321.383881 286.714905,321.037354 
	C287.879822,325.744751 289.101288,330.430054 289.179962,335.134460 
	C289.200439,336.357452 285.651733,337.640076 283.379059,338.954834 
z"/>
<path fill="#6341FA" opacity="1.000000" stroke="none" 
	d="
M281.275421,340.909912 
	C281.447113,340.355225 281.927063,339.747833 282.710449,339.077942 
	C282.537170,339.629425 282.060455,340.243317 281.275421,340.909912 
z"/>
<path fill="#66C2ED" opacity="1.000000" stroke="none" 
	d="
M275.636932,367.635254 
	C273.542969,367.817719 271.181488,367.784698 268.395020,367.610840 
	C270.412750,363.966614 272.900055,367.009705 275.636932,367.635254 
z"/>
<path fill="#0184F6" opacity="1.000000" stroke="none" 
	d="
M180.989655,356.624573 
	C176.894333,360.254913 173.600098,364.924713 167.234695,364.783447 
	C164.941208,363.946960 162.905121,362.890503 160.539886,361.754456 
	C160.035492,361.445160 159.836197,361.238770 159.441879,360.924469 
	C158.452408,359.868622 157.633865,358.943939 156.520538,357.903198 
	C156.166122,357.387085 156.106476,356.986969 156.031281,356.282257 
	C157.735382,356.402344 159.455017,356.827057 161.615875,357.360748 
	C164.289398,353.355957 167.541611,350.103912 173.644501,349.705170 
	C179.341461,349.332916 180.588364,351.758545 180.989655,356.624573 
z"/>
</svg>